<svg width="900" height="220" viewBox="0 0 900 220" fill="none" xmlns="http://www.w3.org/2000/svg">
  <style>
    .bg{fill:#0d1117}.stroke{stroke:#00ff88;stroke-opacity:.55}.txt{font-family:JetBrains Mono,Consolas,monospace;fill:#c9d1d9}.green{fill:#00ff88}.muted{fill:#7d8590}.blink{animation:blink 1s step-end infinite}.scan{animation:scan 4s linear infinite}.pulse{animation:pulse 2.2s ease-in-out infinite}.dash{stroke-dasharray:8 12;animation:dash 18s linear infinite}@keyframes blink{50%{opacity:0}}@keyframes scan{0%{transform:translateY(-70px)}100%{transform:translateY(220px)}}@keyframes pulse{0%,100%{opacity:.35}50%{opacity:1}}@keyframes dash{to{stroke-dashoffset:-260}}
  </style>
  <rect class="bg" width="900" height="220" rx="18"/>
  <rect x="1" y="1" width="898" height="218" rx="18" stroke="#00ff88" stroke-opacity=".35"/>
  <circle cx="28" cy="26" r="6" fill="#ff5f56"/><circle cx="50" cy="26" r="6" fill="#ffbd2e"/><circle cx="72" cy="26" r="6" fill="#27c93f"/>
  <path class="stroke dash" d="M30 176C142 91 231 205 340 111C450 16 549 188 665 88C740 24 809 56 870 34"/>
  <g opacity=".18">
    <path d="M0 70H900M0 110H900M0 150H900M120 0V220M260 0V220M420 0V220M580 0V220M740 0V220" stroke="#00ff88"/>
  </g>
  <rect class="scan" x="0" y="0" width="900" height="54" fill="url(#g)" opacity=".35"/>
  <text class="txt" x="34" y="75" font-size="20">ghostlogix@node:~$ boot --mode quiet-ops</text>
  <text class="green pulse" x="34" y="110" font-size="18">[online]</text>
  <text class="txt" x="126" y="110" font-size="18">automation • data • systems • logistics</text>
  <text class="muted" x="34" y="145" font-size="17">building practical tools for real-world workflows</text>
  <text class="green" x="34" y="183" font-size="18">&gt; signal locked</text><rect class="green blink" x="188" y="166" width="10" height="22"/>
  <defs><linearGradient id="g" x1="0" y1="0" x2="0" y2="54"><stop stop-color="#00ff88" stop-opacity="0"/><stop offset=".5" stop-color="#00ff88" stop-opacity=".35"/><stop offset="1" stop-color="#00ff88" stop-opacity="0"/></linearGradient></defs>
</svg>
