<svg width="900" height="240" viewBox="0 0 900 240" xmlns="http://www.w3.org/2000/svg">
  <style>.bg{fill:#05070d}.txt{font-family:JetBrains Mono,Consolas,monospace;fill:#d6f8ff}.muted{fill:#7d8ca3}.line{stroke:#72f7ff;stroke-width:2;stroke-opacity:.75;fill:none;stroke-dasharray:7 12;animation:dash 14s linear infinite}.wave{stroke:#9d7cff;stroke-width:2;fill:none;opacity:.75}.dot{fill:#72f7ff;animation:pulse 2s ease-in-out infinite}.scan{animation:scan 4s linear infinite}@keyframes dash{to{stroke-dashoffset:-240}}@keyframes pulse{0%,100%{opacity:.25}50%{opacity:1}}@keyframes scan{0%{transform:translateX(-200px)}100%{transform:translateX(900px)}}</style>
  <rect class="bg" width="900" height="240" rx="20"/>
  <rect x="1" y="1" width="898" height="238" rx="20" stroke="#72f7ff" stroke-opacity=".22"/>
  <path class="line" d="M40 168C145 46 230 206 330 92S535 190 642 74 775 153 860 64"/>
  <path class="wave" d="M40 122C90 72 138 72 188 122S286 172 336 122 434 72 484 122 582 172 632 122 730 72 780 122 846 172 880 138"/>
  <g><circle class="dot" cx="100" cy="104" r="5"/><circle class="dot" cx="220" cy="158" r="5"/><circle class="dot" cx="338" cy="90" r="5"/><circle class="dot" cx="470" cy="132" r="5"/><circle class="dot" cx="612" cy="86" r="5"/><circle class="dot" cx="742" cy="130" r="5"/><circle class="dot" cx="842" cy="78" r="5"/></g>
  <rect class="scan" x="0" y="0" width="120" height="240" fill="#72f7ff" opacity=".07"/>
  <text class="txt" x="40" y="42" font-size="18">field telemetry</text>
  <text class="muted txt" x="40" y="215" font-size="14">phase • entropy • vector • signal • control</text>
</svg>
